<?xml version='1.0' encoding='iso-8859-1'?>
<!DOCTYPE svg PUBLIC '-//W3C//DTD SVG 1.1//EN' 'http://www.w3.org/Graphics/SVG/1.1/DTD/svg11.dtd'>
<svg version="1.1" xmlns="http://www.w3.org/2000/svg" viewBox="0 0 460 460" xmlns:xlink="http://www.w3.org/1999/xlink" enable-background="new 0 0 460 460">
  <g>
    <path d="m240.349,165.08c-37.71,1.621-84.639,3.641-141.837,32.104-6.754,3.361-12.897,7.28-18.463,11.707-5.6-23.824-14.805-73.462-7.796-119.722 3.45-22.766-0.514-43.464-11.462-59.855-9.107-13.635-21.512-21.856-30.083-25.003-6.774-2.49-14.387-1.596-20.357,2.384l-.339,.225c-6.315,4.211-10.058,11.243-10.012,18.811 0.048,7.709 3.969,14.839 10.49,19.071 14.563,9.451 20.118,25.956 16.512,49.056-8.338,53.408-1.578,98.511 5.562,126.943 4.766,18.979 10.257,33.147 13.888,41.448-8.343,32.48-4.834,73.592 10.475,122.362 12.076,38.472 27.018,66.954 27.648,68.148 1.321,2.503 3.919,4.07 6.75,4.07h31.766c3.873,0 7.132-2.901 7.581-6.747l12.886-110.347c0,0 52.553-8.567 70.254-9.369 18.006-0.816 27.211,14.998 28.775,37.067 2.711,38.251-0.02,81.089-0.048,81.517-0.138,2.106 0.603,4.175 2.046,5.716 1.443,1.539 3.46,2.414 5.57,2.414h42.355c3.215,0 6.084-2.014 7.178-5.037 0.503-1.391 42.588-117.792 76.147-212.852 9.365-4.4 18.667-10.479 27.095-18.619 17.78-17.172 28.489-40.603 31.404-68.403 6.913-2.03 13.047-6.091 17.679-11.811 6.023-7.438 8.79-16.777 7.789-26.296-1-9.519-5.648-18.078-13.086-24.102-7.384-5.98-16.646-8.749-26.09-7.806-4.034-6.514-8.879-12.509-14.521-17.908-17.984-17.209-42.739-26.688-69.705-26.688-26.967,0-51.722,9.478-69.706,26.688-5.641,5.398-10.485,11.393-14.518,17.905-9.435-0.93-18.674,1.838-26.047,7.81-7.438,6.024-12.086,14.583-13.086,24.102-1,9.519 1.766,18.858 7.789,26.296 4.616,5.7 10.724,9.754 17.608,11.791 0.45,4.485 1.092,8.795 1.909,12.93zm-7.656-34.33c-3.457-4.27-5.045-9.63-4.471-15.093 0.574-5.464 3.242-10.377 7.511-13.834 2.587-2.096 5.579-3.491 8.748-4.148-4.391,11.425-6.701,24.012-6.82,37.488-1.858-1.181-3.542-2.652-4.968-4.413zm-144.888,117.798c-2.029,23.564-12.114,45.133-29.963,64.182-1.298-18.389-0.094-36.513 5.138-52.741 4.769-14.791 12.706-27.053 23.659-36.682 1.054,5.622 2.091,14.494 1.166,25.241zm-70.112-214.844c-2.816-1.828-4.442-4.763-4.463-8.055-0.019-3.148 1.483-5.962 4.113-7.716l.339-.226c2.476-1.651 5.64-2.016 8.465-0.978 6.615,2.429 16.3,8.941 23.642,19.934 9.215,13.798 12.372,30.796 9.383,50.525-8.245,54.415 4.425,111.556 9.779,132.095-6.365,7.019-11.619,14.989-15.739,23.887-9.958-27.945-23.435-81.32-13.139-147.271 5.586-35.775-9.088-53.568-22.38-62.195zm98.603,407.859h-3.892l-3.283-68.397c-0.469-13.219 4.233-21.256 18.401-27.74l-11.226,96.137zm128.031-261.382c15.673,45.486 57.532,68.127 87.511,68.648 6.836,0.119 17.237-0.894 25.453-2.987-28.739,81.22-62.073,173.631-70.14,195.971h-4.338l21.421-109.262c0.811-4.137-1.885-8.148-6.022-8.959-4.135-0.805-8.148,1.885-8.958,6.022l-21.997,112.2h-9.046c0.681-14.477 1.699-45.868-0.398-75.461-2.083-29.381-18.438-50.478-42.625-51.22-16.957-0.52-50.811,5.437-67.426,8.867-28.211,5.823-55.11,15.539-53.892,49.803l3.251,67.76h-1.091c-6.987-14.261-29.823-63.75-36.695-114.454 0.074,0.002-0.074,0 0,0 27.602-27.715 38.665-52.359 41.708-78.118 1.959-16.582-1.422-29.258-2.776-34.234 2.26-1.381 4.603-2.689 7.046-3.905 54.294-27.02 101.055-29.039 139.014-30.671zm8.588-43.918c0-0.041-0.003,0.042 0,0 2.579-49.061 34.329-83.441 83.483-83.441 49.153,0 85.211,39.451 83.482,88.55-0.926,26.283-11.331,52.547-27.557,68.219-19.192,18.536-43.567,24.973-59.954,23.961-31.343-1.938-79.454-29.052-79.454-97.289zm187.232-5.513c-1.437,1.775-3.138,3.255-5.013,4.441-0.117-13.49-2.428-26.091-6.825-37.527 8.536,1.763 15.35,8.873 16.309,17.993 0.574,5.463-1.014,10.824-4.471,15.093z"/>
    <path d="m409.835,118.381c0-22.004-19.168-39.905-42.729-39.905-11.707,0-22.758,4.498-30.709,12.163-7.952-7.665-19.002-12.163-30.709-12.163-23.561,0-42.729,17.901-42.729,39.905 0,12.71 6.346,24.328 16.801,31.746-4.824,6.296-7.401,13.401-7.401,20.697 0,24.639 28.129,43.94 64.038,43.94 35.909,0 64.037-19.3 64.037-43.94 0-7.296-2.577-14.401-7.401-20.697 10.456-7.418 16.802-19.036 16.802-31.746zm-32.039,22.696c-2.555,0.971-4.395,3.235-4.824,5.934-0.43,2.699 0.617,5.422 2.743,7.139 4.313,3.481 9.454,9.2 9.454,16.674 0,15.543-22.335,28.674-48.772,28.674-26.437,0-48.772-13.132-48.772-28.674 0-7.474 5.141-13.192 9.454-16.674 2.127-1.716 3.173-4.439 2.743-7.139-0.429-2.699-2.269-4.963-4.824-5.934-10.19-3.876-16.774-12.785-16.774-22.696 0-13.586 12.32-24.639 27.464-24.639 10.091,0 19.354,4.964 24.173,12.957 1.381,2.291 3.862,3.691 6.536,3.691 2.675,0 5.155-1.4 6.537-3.691 4.819-7.992 14.081-12.957 24.173-12.957 15.143,0 27.463,11.054 27.463,24.639 0,9.911-6.584,18.82-16.774,22.696z"/>
    <path d="m366.772,110.93c-1.343,0-2.656,0.539-3.603,1.486-0.947,0.946-1.486,2.259-1.486,3.603 0,1.333 0.539,2.646 1.486,3.592 0.947,0.947 2.259,1.497 3.603,1.497 1.333,0 2.646-0.55 3.592-1.497 0.947-0.946 1.496-2.259 1.496-3.592 0-1.344-0.55-2.657-1.496-3.603-0.946-0.947-2.249-1.486-3.592-1.486z"/>
    <path d="m306.026,110.93c-1.344,0-2.657,0.539-3.593,1.486-0.957,0.946-1.496,2.259-1.496,3.603 0,1.333 0.539,2.646 1.496,3.592 0.947,0.947 2.249,1.497 3.593,1.497 1.343,0 2.656-0.55 3.603-1.497 0.946-0.946 1.486-2.259 1.486-3.592 0-1.344-0.54-2.657-1.486-3.603-0.947-0.947-2.26-1.486-3.603-1.486z"/>
    <path d="m345.075,139.486c-1.069,0-2.117,0.437-2.88,1.191-0.753,0.753-1.191,1.812-1.191,2.88 0,1.068 0.437,2.117 1.191,2.88 0.763,0.753 1.811,1.191 2.88,1.191 1.068,0 2.127-0.437 2.88-1.191 0.753-0.753 1.191-1.812 1.191-2.88 0-1.078-0.438-2.127-1.191-2.88-0.754-0.754-1.802-1.191-2.88-1.191z"/>
    <path d="m330.603,146.437c0.753-0.763 1.191-1.812 1.191-2.88 0-1.068-0.438-2.117-1.191-2.88-0.763-0.753-1.811-1.191-2.88-1.191-1.079,0-2.127,0.437-2.88,1.191-0.763,0.763-1.191,1.812-1.191,2.88 0,1.068 0.427,2.117 1.191,2.88 0.753,0.753 1.801,1.191 2.88,1.191 1.069-2.84217e-14 2.117-0.438 2.88-1.191z"/>
    <path d="m341.486,181.857v-20.193c0-2.811-2.278-5.088-5.089-5.088s-5.088,2.278-5.088,5.088v20.193c-2.798,0.015-5.062,2.284-5.062,5.086 0,2.811 2.278,5.088 5.088,5.088h10.124c2.81,0 5.088-2.278 5.088-5.088 0-2.801-2.264-5.071-5.061-5.086z"/>
  </g>
</svg>
